<?xml version="1.0" encoding="UTF-8" standalone="no"?>
<!-- Created with Inkscape (http://www.inkscape.org/) -->

<svg
   width="179.37354mm"
   height="179.34932mm"
   viewBox="0 0 179.37353 179.34932"
   version="1.1"
   id="svg1"
   xml:space="preserve"
   inkscape:version="1.4.2 (ebf0e940, 2025-05-08)"
   sodipodi:docname="drawing-2.svg"
   inkscape:export-filename="icon.png"
   inkscape:export-xdpi="18.127752"
   inkscape:export-ydpi="18.127752"
   xmlns:inkscape="http://www.inkscape.org/namespaces/inkscape"
   xmlns:sodipodi="http://sodipodi.sourceforge.net/DTD/sodipodi-0.dtd"
   xmlns="http://www.w3.org/2000/svg"
   xmlns:svg="http://www.w3.org/2000/svg"><sodipodi:namedview
     id="namedview1"
     pagecolor="#ffffff"
     bordercolor="#000000"
     borderopacity="0.25"
     inkscape:showpageshadow="2"
     inkscape:pageopacity="0.0"
     inkscape:pagecheckerboard="0"
     inkscape:deskcolor="#d1d1d1"
     inkscape:document-units="mm"
     inkscape:zoom="1.0351712"
     inkscape:cx="300.91642"
     inkscape:cy="339.07436"
     inkscape:window-width="2560"
     inkscape:window-height="1381"
     inkscape:window-x="0"
     inkscape:window-y="31"
     inkscape:window-maximized="0"
     inkscape:current-layer="g1" /><defs
     id="defs1" /><g
     inkscape:label="Layer 1"
     inkscape:groupmode="layer"
     id="layer1"
     transform="translate(-25.310045,-58.756589)"><g
       id="g1"
       transform="translate(25.310027,58.756589)"><rect
         style="fill:#ffffff;fill-opacity:1;stroke:#efbf04;stroke-width:0.179182;stroke-linecap:round;paint-order:markers stroke fill"
         id="rect1"
         width="179.19435"
         height="179.17014"
         x="0.089609087"
         y="0.089591496"
         ry="29.439163" /><path
         id="path2"
         d="m 161.5366,108.42028 h -0.22186 v 0.19838 c 0,-1.99784 -0.47033,-3.87759 -1.29785,-5.52593 V 84.134554 c 0,-39.000256 -31.54973,-70.72942 -70.329666,-70.72942 -38.78038,0 -70.330344,31.729164 -70.330344,70.72942 v 18.958176 c -0.825951,1.64834 -1.297612,3.52809 -1.297612,5.52593 v -0.19838 H 17.83763 c -6.332798,0 -11.4704675,5.46217 -11.4704675,12.21134 v 21.5322 c 0,6.7421 5.1376695,12.20425 11.4704675,12.20425 h 0.221638 v -0.19836 c 0,6.50595 4.951096,11.77448 11.056717,11.77448 h 9.097083 c 2.880772,0 5.213552,-2.48903 5.213552,-5.55427 v -57.98911 c 0,-3.067604 -2.33278,-5.549554 -5.213552,-5.549554 H 30.436892 V 84.134554 c 0,-32.499027 26.579564,-58.936068 59.250332,-58.936068 32.670086,0 59.250326,26.437041 59.250326,58.936068 v 12.716702 h -7.77595 c -2.88187,0 -5.21355,2.48195 -5.21355,5.549554 v 57.98911 c 0,3.06524 2.33168,5.55427 5.21355,5.55427 h 9.09597 c 6.10763,0 11.05717,-5.26853 11.05717,-11.77448 v 0.19836 h 0.22186 c 6.3339,0 11.46981,-5.46215 11.46981,-12.20425 v -21.5322 c 0,-6.74917 -5.13591,-12.21134 -11.46981,-12.21134"
         style="fill:#000000;fill-opacity:1;fill-rule:nonzero;stroke:none;stroke-width:0.022889"
         inkscape:label="path2" /><g
         style="display:block"
         id="g3"
         transform="matrix(3.0596519,0,0,3.0596519,45.979505,57.412325)"><g
           id="g2"
           transform="translate(0,14.541543)"><path
             d="M 27.9727,3.12324 C 27.6435,1.89323 26.6768,0.926623 25.4468,0.597366 23.2197,2.24288e-7 14.285,0 14.285,0 14.285,0 5.35042,2.24288e-7 3.12323,0.597366 1.89323,0.926623 0.926623,1.89323 0.597366,3.12324 2.24288e-7,5.35042 0,10 0,10 c 0,0 2.24288e-7,4.6496 0.597366,6.8768 0.329257,1.23 1.295864,2.1966 2.525864,2.5258 C 5.35042,20 14.285,20 14.285,20 c 0,0 8.9347,0 11.1618,-0.5974 1.23,-0.3292 2.1967,-1.2958 2.5259,-2.5258 C 28.5701,14.6496 28.5701,10 28.5701,10 c 0,0 -0.0024,-4.64958 -0.5974,-6.87676 z"
             fill="#ff0000"
             id="path1-1" /><path
             d="m 11.4253,14.2854 7.4224,-4.285 -7.4224,-4.28507 z"
             fill="#ffffff"
             id="path2-3" /></g></g></g></g></svg>
